<?xml version="1.0" encoding="utf-8"?>
<!-- Generator: Adobe Illustrator 17.1.0, SVG Export Plug-In . SVG Version: 6.00 Build 0)  -->
<!DOCTYPE svg PUBLIC "-//W3C//DTD SVG 1.1//EN" "http://www.w3.org/Graphics/SVG/1.1/DTD/svg11.dtd">
<svg version="1.1" id="Layer_1" xmlns="http://www.w3.org/2000/svg" xmlns:xlink="http://www.w3.org/1999/xlink" x="0px" y="0px"
	 viewBox="0 0 110 60" enable-background="new 0 0 110 60" xml:space="preserve">
<g>
	<path fill="#ED232A" d="M47.4,26.1h-3.2l-0.8-2.8h-4.2l-0.8,2.8h-3.2l3.9-13c0.2-0.5,0.4-0.9,0.7-1.3c0.4-0.4,0.8-0.6,1.3-0.6
		c0.6,0,1.1,0.2,1.5,0.6c0.4,0.4,0.7,0.8,0.8,1.4L47.4,26.1z M42.6,20.6l-1.3-6.4L40,20.6H42.6z"/>
	<path fill="#ED232A" d="M56.3,14.3c-1.8,0-3.2,0.4-4.3,1.1c-1,0.8-1.6,1.8-1.6,3.3c0,1.6,0.6,2.7,1.8,3.5c1,0.6,2.3,1,4,1v2.9
		c-0.2,0-0.4,0-0.6,0.1c-0.2,0-0.4,0-0.6,0c-2,0-3.7-0.6-5.2-1.9c-1.7-1.4-2.5-3.2-2.5-5.4c0-2.2,0.8-4.1,2.4-5.5
		c1.5-1.3,3.3-1.9,5.4-1.9c0.3,0,0.5,0,0.7,0s0.4,0,0.5,0V14.3z"/>
	<path fill="#ED232A" d="M66.2,14.2h-2.8v11.9h-3.1V14.2h-2.8v-2.8h8.6V14.2z"/>
	<path fill="#ED232A" d="M70.8,26.2h-3.1V11.5h3.1V26.2z"/>
	<path fill="#ED232A" d="M84,11.5l-4,13.2c-0.2,0.5-0.4,0.9-0.6,1.1c-0.3,0.3-0.8,0.4-1.4,0.4c-0.6,0-1-0.2-1.4-0.5
		c-0.3-0.3-0.6-0.7-0.7-1.2l-3.8-13h3.2L78,21.9l2.7-10.4H84z"/>
	<path fill="#ED232A" d="M98.8,18.7c0,1.9-0.7,3.7-2,5.1c-1.4,1.6-3.2,2.4-5.3,2.4c-2.1,0-3.9-0.6-5.4-1.9c-1.6-1.4-2.4-3.1-2.4-5.3
		c0-2.1,0.8-4,2.3-5.5c1.5-1.5,3.3-2.2,5.3-2.2c2,0,3.7,0.7,5.2,2.2C98,15,98.8,16.7,98.8,18.7z M95.7,18.7c0-1.1-0.4-2.1-1.3-3
		c-0.9-0.9-1.9-1.3-3-1.3c-1.3,0-2.4,0.5-3.3,1.4c-0.9,0.9-1.3,2-1.3,3.2c0,1.3,0.5,2.3,1.4,3.1c0.9,0.8,1.9,1.2,3.2,1.2
		c1.2,0,2.2-0.4,3-1.2C95.3,21.2,95.7,20.1,95.7,18.7z"/>
	<path fill="#ED232A" d="M108.9,21.9c0,1.4-0.5,2.5-1.5,3.3c-0.9,0.7-2,1-3.5,1c-0.7,0-1.3-0.1-2-0.2c-0.6-0.1-1.3-0.3-2-0.6v-3.1
		c0.6,0.2,1.1,0.4,1.4,0.5c1.1,0.3,1.9,0.5,2.5,0.5c0.8,0,1.3-0.1,1.7-0.4c0.3-0.3,0.5-0.7,0.5-1.1c0-0.6-0.5-1.1-1.6-1.5
		c-1.6-0.6-2.6-1-3-1.2c-1.1-0.8-1.6-1.9-1.6-3.4c0-1.2,0.5-2.3,1.4-3.1c0.9-0.8,2.1-1.3,3.6-1.3c0.7,0,1.3,0,1.9,0.1
		c0.6,0.1,1.1,0.3,1.7,0.5v3.2c-0.5-0.3-1.1-0.6-1.6-0.8c-0.5-0.2-1.1-0.3-1.7-0.3c-0.6,0-1.1,0.1-1.5,0.4c-0.4,0.3-0.7,0.7-0.7,1.2
		c0,0.7,0.5,1.3,1.5,1.6c1.7,0.5,2.6,0.9,2.9,1.1C108.4,19.1,108.9,20.2,108.9,21.9z"/>
	<path fill="#ED232A" d="M8.2,5.8c0,0-2.3,20.6-0.5,36.2c0.7,6,4.1,9,2.4,2.5C9.1,40.9,9,33.3,11,32.7c2-0.6,2.8,0.3,2.8,1.8
		c0,1.5-1.2,13.5-0.3,15c0.8,1.5,2.3-3,2.7-17.8c0.2-7.6,1.7-19,0.4-27.3c-0.6-3.8-2.8-3.8-3.1-3.3c-0.6,1.3,0.4,1.9,1.1,3
		c1.5,2.4,0.8,5.6,0.5,9.3c-0.6,7-5.4,10-6.1,1.4C8.7,9.4,8.8,5.2,10.3,4.3c0.8-0.5,1.6-1,1.1-2C10.7,1.1,8.5,2.1,8.2,5.8z"/>
	<path fill="#ED232A" d="M10.6,11.1c-0.6,1-1.3,3.3,0.8,3.9c3.1,0.6,3-3.1,2.4-3.9C13.1,10.4,11.2,10.1,10.6,11.1z"/>
	<path fill="#ED232A" d="M27.1,6c0,0,1.9,20.6,0.4,36.2c-0.4,4.3-2.9,5.1-2.4,2.5c0.6-3.6,1.2-11.8-0.8-12.5c-2-0.6-2.3,1-2.5,2.4
		c-0.2,1.5,0.5,10.4-0.3,11.9c-0.8,1.5-2.1,0.1-2.5-14.8c-0.2-7.6-1.2-18.9-0.3-27.3c0.2-1.9,2-1.5,2-0.3c0,2.8-0.9,5.6-0.6,9.3
		c0.6,7.1,5.2,8.3,6.1,1.4C26.8,9.6,25,6.2,25,4.5C25,3.3,26.8,2.3,27.1,6z"/>
	<path fill="#ED232A" d="M23.5,10.8c1,0.5,2.8,2.1,1.5,3.7c-2.2,2.2-4.3-1-4.1-2C21,11.6,22.5,10.3,23.5,10.8z"/>
	<path fill="#ED232A" d="M44,39.5h-2.5v-4.8h-3.6v4.8h-2.5V27.9h2.5v4.4h3.6v-4.4H44V39.5z"/>
	<path fill="#ED232A" d="M54.2,35.7c0,1-0.4,1.9-1.2,2.7c-0.9,0.8-1.9,1.2-3.1,1.2c-1,0-2-0.4-2.8-1.1c-0.9-0.7-1.3-1.6-1.3-2.6v-8
		h2.4v7.8c0,0.4,0.2,0.8,0.5,1.1c0.4,0.3,0.8,0.5,1.2,0.5c0.5,0,0.9-0.2,1.3-0.5c0.3-0.3,0.5-0.7,0.5-1.1V28h2.5V35.7z"/>
	<path fill="#ED232A" d="M66.9,39.5h-2.1l0-8.2l-1.9,7c-0.1,0.4-0.3,0.7-0.5,0.9c-0.2,0.2-0.5,0.3-0.9,0.3c-0.4,0-0.7-0.1-1-0.4
		c-0.2-0.2-0.3-0.5-0.5-1l-2-6.8l0,8.1H56v-10c0-0.5,0.2-0.9,0.5-1.2c0.3-0.3,0.7-0.4,1.2-0.4c0.4,0,0.8,0.1,1.1,0.3
		c0.3,0.2,0.5,0.5,0.6,0.9l2.2,7.5l2-7.8c0.1-0.3,0.2-0.5,0.5-0.7c0.3-0.2,0.6-0.3,0.9-0.3c0.3,0,0.7,0.1,1,0.4
		c0.5,0.3,0.8,0.8,0.8,1.4V39.5z"/>
	<path fill="#ED232A" d="M77.7,39.5h-2.5l-0.6-2.2h-3.4l-0.7,2.2h-2.5l3.1-10.3c0.1-0.4,0.3-0.7,0.6-1c0.3-0.3,0.7-0.4,1.1-0.4
		c0.4,0,0.8,0.2,1.2,0.5c0.3,0.3,0.5,0.7,0.7,1.1L77.7,39.5z M73.9,35.2l-1-5l-1.1,5H73.9z"/>
	<path fill="#ED232A" d="M87.3,38.1c0,0.4-0.2,0.8-0.5,1.1c-0.3,0.3-0.7,0.5-1.1,0.5c-0.3,0-0.6-0.1-0.8-0.2
		c-0.3-0.2-0.6-0.4-0.7-0.7l-3.1-7.2H81v8h-2.1V29.5c0-0.4,0.1-0.8,0.4-1.1c0.3-0.3,0.6-0.5,1.1-0.5c0.3,0,0.6,0.1,0.9,0.3
		c0.3,0.2,0.5,0.4,0.6,0.7l3.1,7.2h0.1v-8h2.2V38.1z"/>
	<path fill="#ED232A" d="M100.6,33.7c0,1.5-0.5,2.9-1.5,4.1c-1.1,1.3-2.5,1.9-4.2,1.9c-1.7,0-3.1-0.5-4.3-1.5
		c-1.3-1.1-1.9-2.5-1.9-4.2c0-1.7,0.6-3.1,1.8-4.3c1.2-1.2,2.6-1.8,4.2-1.8c1.6,0,3,0.6,4.1,1.8C100,30.7,100.6,32.1,100.6,33.7z
		 M98.2,33.7c0-0.9-0.3-1.7-1-2.4c-0.7-0.7-1.5-1.1-2.4-1.1c-1,0-1.9,0.4-2.6,1.1c-0.7,0.7-1,1.6-1,2.5c0,1,0.4,1.8,1.1,2.5
		c0.7,0.6,1.5,0.9,2.5,0.9c0.9,0,1.7-0.3,2.4-1C97.8,35.6,98.2,34.7,98.2,33.7z"/>
	<path fill="#ED232A" d="M109,36.2c0,1.1-0.4,2-1.2,2.6c-0.7,0.5-1.6,0.8-2.7,0.8c-0.5,0-1-0.1-1.6-0.2c-0.5-0.1-1-0.3-1.6-0.5v-2.5
		c0.5,0.2,0.8,0.3,1.1,0.4c0.9,0.3,1.5,0.4,2,0.4c0.6,0,1.1-0.1,1.3-0.4c0.3-0.2,0.4-0.5,0.4-0.9c0-0.5-0.4-0.9-1.3-1.2
		c-1.3-0.4-2.1-0.8-2.4-1c-0.9-0.6-1.3-1.5-1.3-2.7c0-1,0.4-1.8,1.1-2.5c0.7-0.7,1.7-1,2.8-1c0.6,0,1.1,0,1.5,0.1
		c0.4,0.1,0.9,0.2,1.3,0.4v2.5c-0.4-0.3-0.8-0.5-1.3-0.7c-0.4-0.2-0.9-0.2-1.3-0.2c-0.4,0-0.8,0.1-1.2,0.3c-0.4,0.2-0.5,0.6-0.5,1
		c0,0.6,0.4,1,1.2,1.3c1.3,0.4,2.1,0.7,2.3,0.9C108.6,33.9,109,34.9,109,36.2z"/>
	<path fill="#ED232A" d="M1.1,59.2c51.4-21.7,82.9-2.1,75.6-7.1C46.3,35.4-2,56.3,1.1,59.2z"/>
</g>
</svg>
