<?xml version="1.0" encoding="utf-8"?>
<!-- Generator: Adobe Illustrator 26.0.1, SVG Export Plug-In . SVG Version: 6.00 Build 0)  -->
<svg version="1.1" id="Capa_1" xmlns="http://www.w3.org/2000/svg" xmlns:xlink="http://www.w3.org/1999/xlink" x="0px" y="0px"
	 viewBox="0 0 212 54" style="enable-background:new 0 0 212 54;" xml:space="preserve">
<style type="text/css">
	.st0{fill:#D52225;}
</style>
<path class="st0" d="M75.15,28.47H68.4l-1.69-3.65h-8.85l-1.69,3.65h-6.75l8.22-16.96c0.42-0.65,0.84-1.17,1.48-1.7
	c0.84-0.52,1.69-0.78,2.74-0.78c1.26,0,2.32,0.26,3.16,0.78c0.84,0.52,1.48,1.04,1.69,1.83L75.15,28.47z M65.03,21.29l-2.74-8.35
	l-2.74,8.35H65.03z"/>
<path class="st0" d="M93.91,13.07c-3.79,0-6.75,0.52-9.06,1.44c-2.11,1.04-3.37,2.35-3.37,4.31c0,2.09,1.26,3.52,3.79,4.57
	c2.11,0.78,4.85,1.3,8.43,1.3v3.78c-0.42,0-0.84,0-1.26,0.13c-0.42,0-0.84,0-1.26,0c-4.22,0-7.8-0.78-10.96-2.48
	c-3.58-1.83-5.27-4.18-5.27-7.05c0-2.87,1.69-5.35,5.06-7.18c3.16-1.7,6.96-2.48,11.38-2.48c0.63,0,1.05,0,1.48,0
	c0.42,0,0.84,0,1.05,0C93.91,9.42,93.91,13.07,93.91,13.07z"/>
<path class="st0" d="M114.78,12.94h-5.9v15.53h-6.53V12.94h-5.9V9.29h18.13v3.65H114.78z"/>
<path class="st0" d="M124.47,28.6h-6.53V9.42h6.53V28.6z"/>
<path class="st0" d="M152.3,9.42l-8.43,17.22c-0.42,0.65-0.84,1.17-1.26,1.44c-0.63,0.39-1.69,0.52-2.95,0.52s-2.11-0.26-2.95-0.65
	c-0.63-0.39-1.26-0.91-1.48-1.57l-8.01-16.96h6.75l5.69,13.57l5.69-13.57H152.3z"/>
<path class="st0" d="M183.5,18.81c0,2.48-1.48,4.83-4.22,6.65c-2.95,2.09-6.75,3.13-11.17,3.13s-8.22-0.78-11.38-2.48
	c-3.37-1.83-5.06-4.04-5.06-6.91c0-2.74,1.69-5.22,4.85-7.18c3.16-1.96,6.96-2.87,11.17-2.87c4.22,0,7.8,0.91,10.96,2.87
	S183.5,16.2,183.5,18.81z M176.96,18.81c0-1.44-0.84-2.74-2.74-3.91c-1.9-1.17-4.01-1.7-6.32-1.7c-2.74,0-5.06,0.65-6.96,1.83
	s-2.74,2.61-2.74,4.18c0,1.7,1.05,3,2.95,4.04c1.9,1.04,4.01,1.57,6.75,1.57c2.53,0,4.64-0.52,6.32-1.57
	C176.12,22.07,176.96,20.64,176.96,18.81z"/>
<path class="st0" d="M204.79,22.99c0,1.83-1.05,3.26-3.16,4.31c-1.9,0.91-4.22,1.3-7.38,1.3c-1.48,0-2.74-0.13-4.22-0.26
	c-1.26-0.13-2.74-0.39-4.22-0.78v-4.04c1.26,0.26,2.32,0.52,2.95,0.65c2.32,0.39,4.01,0.65,5.27,0.65c1.69,0,2.74-0.13,3.58-0.52
	c0.63-0.39,1.05-0.91,1.05-1.44c0-0.78-1.05-1.44-3.37-1.96c-3.37-0.78-5.48-1.3-6.32-1.57c-2.32-1.04-3.37-2.48-3.37-4.44
	c0-1.57,1.05-3,2.95-4.04s4.43-1.7,7.59-1.7c1.48,0,2.74,0,4.01,0.13c1.26,0.13,2.32,0.39,3.58,0.65v4.18
	c-1.05-0.39-2.32-0.78-3.37-1.04c-1.05-0.26-2.32-0.39-3.58-0.39c-1.26,0-2.32,0.13-3.16,0.52c-0.84,0.39-1.48,0.91-1.48,1.57
	c0,0.91,1.05,1.7,3.16,2.09c3.58,0.65,5.48,1.17,6.11,1.44C203.74,19.33,204.79,20.77,204.79,22.99z"/>
<path class="st0" d="M6.78,8.05c0,0-3.88,20.6-0.84,36.2c1.18,6,6.91,9,4.05,2.5c-1.69-3.6-1.85-11.2,1.52-11.8s4.72,0.3,4.72,1.8
	s-2.02,13.5-0.51,15c1.35,1.5,3.88-3,4.55-17.8c0.34-7.6,2.87-19,0.67-27.3c-1.01-3.8-4.72-3.8-5.23-3.3c-1.01,1.3,0.67,1.9,1.85,3
	c2.53,2.4,1.35,5.6,0.84,9.3c-1.01,7-9.1,10-10.28,1.4c-0.51-5.4-0.34-9.6,2.19-10.5c1.35-0.5,2.7-1,1.85-2
	C10.99,3.35,7.28,4.35,6.78,8.05z"/>
<path class="st0" d="M10.82,13.35c-1.01,1-2.19,3.3,1.35,3.9c5.23,0.6,5.06-3.1,4.05-3.9C15.04,12.65,11.84,12.35,10.82,13.35z"/>
<path class="st0" d="M38.64,8.25c0,0,3.2,20.6,0.67,36.2c-0.67,4.3-4.89,5.1-4.05,2.5c1.01-3.6,2.02-11.8-1.35-12.5
	c-3.37-0.6-3.88,1-4.21,2.4c-0.34,1.5,0.84,10.4-0.51,11.9s-3.54,0.1-4.21-14.8c-0.34-7.6-2.02-18.9-0.51-27.3
	c0.34-1.9,3.37-1.5,3.37-0.3c0,2.8-1.52,5.6-1.01,9.3c1.01,7.1,8.77,8.3,10.28,1.4c1.01-5.2-2.02-8.6-2.02-10.3
	C35.1,5.55,38.13,4.55,38.64,8.25z"/>
<path class="st0" d="M32.57,13.05c1.69,0.5,4.72,2.1,2.53,3.7c-3.71,2.2-7.25-1-6.91-2C28.36,13.85,30.88,12.55,32.57,13.05z"/>
<path class="st0" d="M67.98,45.95h-5.27v-6.26h-7.59v6.26h-5.27V30.81h5.27v5.74h7.59v-5.74h5.27V45.95z"/>
<path class="st0" d="M89.48,40.99c0,1.3-0.84,2.48-2.53,3.52c-1.9,1.04-4.01,1.57-6.53,1.57c-2.11,0-4.22-0.52-5.9-1.44
	c-1.9-0.91-2.74-2.09-2.74-3.39V30.81h5.06v10.18c0,0.52,0.42,1.04,1.05,1.44c0.84,0.39,1.69,0.65,2.53,0.65
	c1.05,0,1.9-0.26,2.74-0.65c0.63-0.39,1.05-0.91,1.05-1.44V30.94h5.27C89.48,30.94,89.48,40.99,89.48,40.99z"/>
<path class="st0" d="M116.25,45.95h-4.43v-10.7l-4.01,9.13c-0.21,0.52-0.63,0.91-1.05,1.17c-0.42,0.26-1.05,0.39-1.9,0.39
	s-1.48-0.13-2.11-0.52c-0.42-0.26-0.63-0.65-1.05-1.3l-4.22-8.87v10.57h-4.22V32.77c0-0.65,0.42-1.17,1.05-1.57
	c0.63-0.39,1.48-0.52,2.53-0.52c0.84,0,1.69,0.13,2.32,0.39c0.63,0.26,1.05,0.65,1.26,1.17l4.64,9.79l4.22-10.18
	c0.21-0.39,0.42-0.65,1.05-0.91c0.63-0.26,1.26-0.39,1.9-0.39c0.63,0,1.48,0.13,2.11,0.52c1.05,0.39,1.69,1.04,1.69,1.83v13.05
	H116.25z"/>
<path class="st0" d="M139.02,45.95h-5.27l-1.26-2.87h-7.17l-1.48,2.87h-5.27l6.53-13.44c0.21-0.52,0.63-0.91,1.26-1.3
	c0.63-0.39,1.48-0.52,2.32-0.52c0.84,0,1.69,0.26,2.53,0.65c0.63,0.39,1.05,0.91,1.48,1.44L139.02,45.95z M131.01,40.34l-2.11-6.52
	l-2.32,6.52H131.01z"/>
<path class="st0" d="M159.26,44.12c0,0.52-0.42,1.04-1.05,1.44c-0.63,0.39-1.48,0.65-2.32,0.65c-0.63,0-1.26-0.13-1.69-0.26
	c-0.63-0.26-1.26-0.52-1.48-0.91l-6.53-9.39h-0.21v10.44h-4.43V32.9c0-0.52,0.21-1.04,0.84-1.44c0.63-0.39,1.26-0.65,2.32-0.65
	c0.63,0,1.26,0.13,1.9,0.39c0.63,0.26,1.05,0.52,1.26,0.91l6.53,9.39h0.21V31.07h4.64C159.26,31.07,159.26,44.12,159.26,44.12z"/>
<path class="st0" d="M187.29,38.38c0,1.96-1.05,3.78-3.16,5.35c-2.32,1.7-5.27,2.48-8.85,2.48s-6.53-0.65-9.06-1.96
	c-2.74-1.44-4.01-3.26-4.01-5.48c0-2.22,1.26-4.04,3.79-5.61s5.48-2.35,8.85-2.35s6.32,0.78,8.64,2.35
	C186.03,34.47,187.29,36.29,187.29,38.38z M182.23,38.38c0-1.17-0.63-2.22-2.11-3.13s-3.16-1.44-5.06-1.44
	c-2.11,0-4.01,0.52-5.48,1.44s-2.11,2.09-2.11,3.26c0,1.3,0.84,2.35,2.32,3.26c1.48,0.78,3.16,1.17,5.27,1.17
	c1.9,0,3.58-0.39,5.06-1.3C181.39,40.86,182.23,39.69,182.23,38.38z"/>
<path class="st0" d="M205,41.64c0,1.44-0.84,2.61-2.53,3.39c-1.48,0.65-3.37,1.04-5.69,1.04c-1.05,0-2.11-0.13-3.37-0.26
	c-1.05-0.13-2.11-0.39-3.37-0.65V41.9c1.05,0.26,1.69,0.39,2.32,0.52c1.9,0.39,3.16,0.52,4.22,0.52c1.26,0,2.32-0.13,2.74-0.52
	c0.63-0.26,0.84-0.65,0.84-1.17c0-0.65-0.84-1.17-2.74-1.57c-2.74-0.52-4.43-1.04-5.06-1.3c-1.9-0.78-2.74-1.96-2.74-3.52
	c0-1.3,0.84-2.35,2.32-3.26c1.48-0.91,3.58-1.3,5.9-1.3c1.26,0,2.32,0,3.16,0.13c0.84,0.13,1.9,0.26,2.74,0.52v3.26
	c-0.84-0.39-1.69-0.65-2.74-0.91c-0.84-0.26-1.9-0.26-2.74-0.26c-0.84,0-1.69,0.13-2.53,0.39c-0.84,0.26-1.05,0.78-1.05,1.3
	c0,0.78,0.84,1.3,2.53,1.7c2.74,0.52,4.43,0.91,4.85,1.17C204.16,38.64,205,39.95,205,41.64z"/>
</svg>
